<?xml version="1.0" encoding="UTF-8" standalone="no"?>
<!DOCTYPE svg PUBLIC "-//W3C//DTD SVG 1.1//EN" "http://www.w3.org/Graphics/SVG/1.1/DTD/svg11.dtd">
<svg width="100%" height="100%" viewBox="0 0 1239 277" version="1.1" xmlns="http://www.w3.org/2000/svg" xmlns:xlink="http://www.w3.org/1999/xlink" xml:space="preserve" xmlns:serif="http://www.serif.com/" style="fill-rule:evenodd;clip-rule:evenodd;stroke-linejoin:round;stroke-miterlimit:2;">
    <g transform="matrix(1,0,0,1,5382.95,-11321.7)">
        <g transform="matrix(1,0,0,1,-8525.16,7185.85)">
            <g transform="matrix(0.557133,0,0,0.557133,2904.64,3747.62)">
                <path d="M897.186,1184.34C896.026,1186.96 895.958,1187.85 893.774,1189.84C890.585,1192.74 885.623,1193.7 881.532,1192.11C878.782,1191.03 878.399,1190.22 876.378,1188.19L543.307,744.095L543.307,1181.1L519.685,1181.1L519.685,708.661L520.137,705.425C521.296,702.803 521.365,701.911 523.549,699.924C526.738,697.023 531.699,696.062 535.791,697.659C538.541,698.732 538.924,699.541 540.945,701.575L874.016,1145.67L874.016,708.661L897.638,708.661L897.638,1181.1C897.487,1182.18 897.336,1183.26 897.186,1184.34Z" style="fill:rgb(209,209,209);fill-rule:nonzero;"/>
            </g>
            <g transform="matrix(0.557133,0,0,0.557133,2904.64,3747.62)">
                <path d="M1299.21,720.472C1220.34,720.472 1141.46,720.108 1062.58,720.475C1025.83,720.761 989.73,741.269 970.984,773.721C950.822,808.622 952.436,854.917 976.251,888.406C995.609,915.629 1027.94,932.801 1062.05,933.069C1101.9,933.26 1141.75,933.008 1181.6,933.072C1223.62,933.266 1265.22,955.117 1289.06,990.631C1312.46,1025.49 1317.49,1071.8 1301.73,1111.19C1289.38,1142.05 1264.71,1167.79 1234.41,1181.44C1217.95,1188.86 1199.98,1192.77 1181.83,1192.91L1181.03,1192.91L944.882,1192.91L944.882,1169.29C1023.82,1169.29 1102.75,1169.66 1181.68,1169.29C1216.45,1169.02 1250.58,1150.74 1269.89,1121.39C1287.06,1095.29 1292,1061.46 1282.63,1031.32C1269.43,988.853 1228.22,957.066 1181.87,956.695C1142.02,956.51 1102.17,956.756 1062.32,956.692C1007.46,956.429 955.189,919.121 938.668,864.818C924.094,816.915 939.871,761.077 978.897,727.874C1002.17,708.075 1032.38,696.897 1063.24,696.85L1299.21,696.85L1299.21,720.472Z" style="fill:rgb(209,209,209);fill-rule:nonzero;"/>
            </g>
            <g transform="matrix(0.557133,0,0,0.557133,2904.64,3747.62)">
                <rect x="1346.46" y="708.661" width="23.622" height="472.441" style="fill:rgb(209,209,209);fill-rule:nonzero;"/>
            </g>
            <g transform="matrix(0.557133,0,0,0.557133,2392.05,3747.62)">
                <rect x="1346.46" y="708.661" width="23.622" height="472.441" style="fill:rgb(209,209,209);fill-rule:nonzero;"/>
            </g>
            <g transform="matrix(0.557133,0,0,0.557133,2715.22,3747.62)">
                <path d="M2137.39,1184.16C2136.6,1186.07 2135.78,1188.01 2134.34,1189.45C2132.16,1191.63 2129.11,1192.5 2125.98,1192.91C2055.08,1192.91 1984.18,1193.03 1913.28,1192.91C1858.49,1192.65 1805.49,1161.56 1778.87,1113.13C1766.51,1090.63 1759.96,1064.93 1759.84,1039.47C1759.76,976.307 1759.76,913.142 1759.84,849.978C1760.11,793.64 1792.99,739.097 1844.44,713.221C1865.6,702.584 1889.15,696.96 1912.97,696.851C1936.97,696.815 1960.97,696.813 1984.98,696.851C2022.8,697.028 2060.16,711.62 2087.91,736.991C2119.1,765.509 2137.59,806.929 2137.8,849.671L2137.8,850.157L2137.8,895.613L2114.17,895.613C2114.17,880.322 2114.19,865.031 2114.17,849.741C2113.96,805.292 2089.09,761.162 2050.04,738.238C2030.44,726.732 2007.82,720.58 1984.9,720.473C1960.95,720.435 1937,720.437 1913.04,720.473C1859.69,720.717 1808.17,756.467 1790.42,808.5C1785.87,821.845 1783.53,835.965 1783.47,850.05C1783.38,913.166 1783.38,976.283 1783.47,1039.4C1783.66,1080.61 1804.38,1120.75 1837.53,1144.67C1859.56,1160.56 1886.76,1169.25 1913.77,1169.29L2114.17,1169.29L2114.17,1032.73L2137.8,1032.73L2137.8,1181.1C2137.66,1182.12 2137.53,1183.14 2137.39,1184.16Z" style="fill:rgb(209,209,209);fill-rule:nonzero;"/>
            </g>
            <g transform="matrix(0.557133,0,0,0.557133,2559.22,3747.62)">
                <rect x="2468.5" y="696.85" width="23.622" height="496.063" style="fill:rgb(209,209,209);fill-rule:nonzero;"/>
                <rect x="2822.84" y="696.85" width="23.622" height="496.063" style="fill:rgb(209,209,209);fill-rule:nonzero;"/>
                <g transform="matrix(0.875,0,0,1,332.185,0)">
                    <rect x="2468.5" y="933.071" width="377.953" height="23.622" style="fill:rgb(209,209,209);fill-rule:nonzero;"/>
                </g>
            </g>
            <g transform="matrix(0.557133,0,0,0.557133,2564.79,3747.62)">
                <rect x="2881.89" y="696.85" width="377.953" height="23.622" style="fill:rgb(209,209,209);fill-rule:nonzero;"/>
                <g transform="matrix(1,0,0,0.952381,0,56.8054)">
                    <rect x="3059.06" y="696.85" width="23.622" height="496.063" style="fill:rgb(209,209,209);fill-rule:nonzero;"/>
                </g>
            </g>
        </g>
    </g>
</svg>
