<?xml version="1.0" encoding="UTF-8" standalone="no"?>
<!DOCTYPE svg PUBLIC "-//W3C//DTD SVG 1.1//EN" "http://www.w3.org/Graphics/SVG/1.1/DTD/svg11.dtd">
<svg width="100%" height="100%" viewBox="0 0 2265 264" version="1.1" xmlns="http://www.w3.org/2000/svg" xmlns:xlink="http://www.w3.org/1999/xlink" xml:space="preserve" xmlns:serif="http://www.serif.com/" style="fill-rule:evenodd;clip-rule:evenodd;stroke-linejoin:round;stroke-miterlimit:2;">
    <g transform="matrix(1,0,0,1,7784.35,-11328.9)">
        <g transform="matrix(0.557133,0,0,0.557133,-7850.15,11263.1)">
            <path d="M472.441,260.378C472.441,181.806 408.745,118.11 330.173,118.11C231.639,118.11 118.11,118.11 118.11,118.11L118.11,590.551L330.653,590.551C408.96,590.551 472.441,527.07 472.441,448.763L472.441,260.378ZM412.954,259.761C412.954,237.963 404.295,217.059 388.881,201.646C373.468,186.232 352.564,177.573 330.766,177.573L176.661,177.573L176.661,532.417L330.581,532.417C352.428,532.417 373.379,523.739 388.827,508.291C404.275,492.843 412.954,471.891 412.954,450.045L412.954,259.761Z" style="fill:rgb(54,174,193);"/>
        </g>
        <g transform="matrix(0.557133,0,0,0.557133,-7850.15,11263.1)">
            <path d="M590.142,324.599L590.142,177.573L885.827,177.573L885.827,118.11L531.496,118.11L531.496,449.281C531.496,527.302 594.745,590.551 672.766,590.551L885.827,590.551L885.827,531.088L672.357,531.088C650.552,531.088 629.641,522.426 614.222,507.008C598.804,491.589 590.142,470.677 590.142,448.872L590.142,384.062L885.827,384.062L885.827,324.599L590.142,324.599Z" style="fill:rgb(54,174,193);"/>
        </g>
        <g transform="matrix(0.557133,0,0,0.557133,-7619.84,11263.1)">
            <path d="M590.142,324.599L590.142,177.573L885.827,177.573L885.827,118.11L531.496,118.11L531.496,449.281C531.496,527.302 594.745,590.551 672.766,590.551L885.827,590.551L885.827,531.088L672.357,531.088C650.552,531.088 629.641,522.426 614.222,507.008C598.804,491.589 590.142,470.677 590.142,448.872L590.142,384.062L885.827,384.062L885.827,324.599L590.142,324.599Z" style="fill:rgb(54,174,193);"/>
        </g>
        <g transform="matrix(0.557133,0,0,0.557133,-6534.09,11263.1)">
            <path d="M590.142,324.599L590.142,177.573L885.827,177.573L885.827,118.11L531.496,118.11L531.496,449.281C531.496,527.302 594.745,590.551 672.766,590.551L885.827,590.551L885.827,531.088L672.357,531.088C650.552,531.088 629.641,522.426 614.222,507.008C598.804,491.589 590.142,470.677 590.142,448.872L590.142,384.062L885.827,384.062L885.827,324.599L590.142,324.599Z" style="fill:rgb(54,174,193);"/>
        </g>
        <g transform="matrix(0.557133,0,0,0.557133,-7850.15,11263.1)">
            <path d="M2125.98,460.256C2125.98,532.216 2067.65,590.551 1995.69,590.551L1771.65,590.551L1771.65,531.088L1996.1,531.088C2014.99,531.088 2033.11,523.582 2046.47,510.222C2059.83,496.862 2067.34,478.741 2067.34,459.847C2067.34,457.878 2067.34,455.906 2067.34,453.938C2067.34,415.347 2036.05,384.062 1997.46,384.062L1901.08,384.062C1866.76,384.062 1833.84,370.426 1809.56,346.153C1785.29,321.88 1771.65,288.959 1771.65,254.632L1771.65,248.009C1771.65,176.268 1829.81,118.11 1901.55,118.11L2125.98,118.11L2125.98,177.573L1901.43,177.573C1882.56,177.573 1864.47,185.067 1851.13,198.406C1837.79,211.745 1830.3,229.837 1830.3,248.701L1830.3,254.224C1830.3,293.091 1861.81,324.599 1900.67,324.599L1995.89,324.599C2067.74,324.599 2125.98,382.844 2125.98,454.693L2125.98,460.256Z" style="fill:rgb(54,174,193);"/>
        </g>
        <g transform="matrix(0.557133,0,0,0.557133,-7850.15,11263.1)">
            <path d="M2834.65,590.551L2622.17,590.551C2543.83,590.551 2480.32,527.039 2480.32,448.694L2480.32,118.11L2539.56,118.11L2539.56,448.23C2539.56,470.216 2548.3,491.301 2563.84,506.847C2579.39,522.393 2600.47,531.127 2622.46,531.127L2834.65,531.127L2834.65,590.551Z" style="fill:rgb(54,174,193);"/>
        </g>
        <g transform="matrix(0.557133,0,0,0.557133,-7850.15,11263.1)">
            <path d="M3779.89,590.551L3307.09,590.551L3543.49,118.11C3622.29,275.591 3701.09,433.071 3779.89,590.551ZM3402.67,531.496L3684.31,531.496L3543.49,250.08C3496.55,343.886 3449.61,437.691 3402.67,531.496Z" style="fill:rgb(54,174,193);fill-rule:nonzero;"/>
        </g>
        <g transform="matrix(0.557133,0,0,0.557133,-7850.15,11263.1)">
            <path d="M1712.6,590.551C1607.01,592.438 1533.62,555.065 1489.79,481.611C1473.38,454.1 1461.12,421.528 1452.86,384.062L1453.52,384.062C1514.8,383.454 1558.12,376.819 1606.99,350.736C1621.62,342.926 1634.69,330.87 1642.5,315.971C1651.69,298.432 1653.84,278.05 1653.53,258.549C1653.13,232.72 1639.79,207.319 1618.62,192.345C1604.84,182.598 1588.08,177.245 1571.13,177.166L1570.83,177.165L1416.91,177.573L1416.91,590.551L1358.27,590.551L1358.27,118.11L1570.88,118.11C1649.15,118.11 1712.6,181.561 1712.6,259.832L1712.6,261.45C1712.6,369.651 1647.02,421.568 1530.92,433.526L1531.52,435.07C1565.04,507.783 1626.07,533.046 1712.6,531.522L1712.6,590.551Z" style="fill:rgb(54,174,193);"/>
        </g>
        <g transform="matrix(0.557133,0,0,0.557133,-6474.34,11263.1)">
            <path d="M1530.92,433.526L1453.52,384.062C1514.8,383.454 1558.12,376.819 1606.99,350.736C1621.62,342.926 1634.69,330.87 1642.5,315.971C1651.69,298.432 1653.84,278.05 1653.53,258.549C1653.13,232.72 1639.79,207.319 1618.62,192.345C1604.84,182.598 1588.08,177.245 1571.13,177.166L1570.83,177.165L1416.91,177.573L1416.91,590.551L1358.27,590.551L1358.27,118.11L1570.88,118.11C1649.15,118.11 1712.6,181.561 1712.6,259.832L1712.6,261.45C1712.6,369.651 1647.02,421.568 1530.92,433.526Z" style="fill:rgb(54,174,193);"/>
        </g>
        <g transform="matrix(1,0,0,1,-8525.16,11088)">
            <path d="M1424.03,390.445L1481.69,377.68" style="fill:none;fill-rule:nonzero;"/>
        </g>
        <g transform="matrix(1,0,0,1,-19.3589,-677.176)">
            <rect x="-6597.87" y="12125.5" width="95.017" height="30.651" style="fill:rgb(54,174,193);"/>
        </g>
    </g>
</svg>
