
<svg version="1.1" id="eagle"  x="0px" y="0px"
	  viewBox="0 0 792 612" enable-background="new 0 0 792 612" xml:space="preserve">
<g style="    transform: translateX(30%);" xmlns="http://www.w3.org/2000/svg" class="text-fills">
    <path d="M144.379,424.423l44.712,-70.714l-25.922,24.034l-18.79,46.68Z" style="fill:#343944;fill-rule:nonzero;"/><path d="M102.559,370.79l21.157,36.579l7.338,-1.639l-28.495,-34.94Z" style="fill:#feefe9;fill-rule:nonzero;"/><path d="M142.396,402.801l-2.716,0.828l-46.093,17.319l45.274,-25.3l3.535,7.153Z" style="fill:#6f91ad;fill-rule:nonzero;"/><path d="M60.863,381.071l32.724,27.227l-19.071,-25.802l-13.653,-1.425Z" style="fill:#343944;fill-rule:nonzero;"/><path d="M0.124,20.917l2.011,28.81l4.893,-0.109l-6.904,-28.701Z" style="fill:#84899c;fill-rule:nonzero;"/><path d="M2.135,49.727l-2.135,-0.752l0.124,-28.058l2.011,28.81Z" style="fill:#feefe9;fill-rule:nonzero;"/><path d="M0,48.975l15.89,34.805l0.986,-2.187l-14.741,-31.866l-2.135,-0.752Z" style="fill:#feefe9;fill-rule:nonzero;"/><path d="M2.135,49.727l4.893,-0.109l13.084,26.401l-3.236,5.574l-14.741,-31.866Z" style="fill:#848ba5;fill-rule:nonzero;"/><path d="M16.876,81.593l32.869,19.456l2.633,4.083l-36.488,-21.352l0.986,-2.187Z" style="fill:#e4c2b7;fill-rule:nonzero;"/><path d="M20.112,76.019l29.735,13.943l-0.102,11.087l-32.869,-19.456l3.236,-5.574Z" style="fill:#a5a6b1;fill-rule:nonzero;"/><path d="M49.847,89.962l-7.226,-50.51l8.458,-0.66l-1.232,51.17Z" style="fill:#a6a8b4;fill-rule:nonzero;"/><path d="M42.621,39.452l27.648,-39.124l-19.19,38.464l-8.458,0.66Z" style="fill:#9da4b9;fill-rule:nonzero;"/><path d="M51.079,38.792l6.331,50.341l-7.563,0.829l1.232,-51.17Z" style="fill:#a2a1b1;fill-rule:nonzero;"/><path d="M49.745,101.049l11.302,-17.646l10.578,-18.894l-13.797,38.603l-8.083,-2.063Z" style="fill:#7c7f91;fill-rule:nonzero;"/><path d="M49.745,101.049l7.665,-11.916l-7.563,0.829l-0.102,11.087Z" style="fill:#9ea1ae;fill-rule:nonzero;"/><path d="M52.378,105.132l69.326,14.261l4.496,-5.185l-68.372,-11.096l-8.083,-2.063l2.633,4.083Z" style="fill:#977e7a;fill-rule:nonzero;"/><path d="M71.625,64.509l-3.321,31.054l-10.476,7.549l13.797,-38.603Z" style="fill:#767d8e;fill-rule:nonzero;"/><path d="M68.304,95.563l66.695,11.805l-8.799,6.84l-68.372,-11.096l10.476,-7.549Z" style="fill:#83879b;fill-rule:nonzero;"/><path d="M107.619,102.57l-10.286,-14.121l4.435,-25.823l6.526,-16.456l-3.365,15.749l-1.275,22.905l17.708,20.385l-13.743,-2.639Z" style="fill:#f5f5f4;fill-rule:nonzero;"/><path d="M103.654,84.824l9.416,1.628l-3.882,-25.484l-0.894,-14.798l-3.365,15.749l-1.275,22.905Z" style="fill:#9da4b9;fill-rule:nonzero;"/><path d="M113.07,86.452l21.929,20.916l-13.637,-2.159l-17.708,-20.385l9.416,1.628Z" style="fill:#a7abc3;fill-rule:nonzero;"/><path d="M134.999,107.368l5.981,-27.152l-1.716,28.637l-4.265,-1.485Z" style="fill:#fbf5f0;fill-rule:nonzero;"/><path d="M140.98,80.216l8.083,36.179l-9.799,-7.542l1.716,-28.637Z" style="fill:#a5a8bf;fill-rule:nonzero;"/><path d="M134.999,107.368l4.265,1.485l-13.064,5.355l8.799,-6.84Z" style="fill:#9494a4;fill-rule:nonzero;"/><path d="M121.704,119.393l40.013,31.629l-8.137,-14.409l-27.38,-22.405l-4.496,5.185Z" style="fill:#d9bfbb;fill-rule:nonzero;"/><path d="M153.58,136.613l9.796,8.629l-1.659,5.78l-8.137,-14.409Z" style="fill:#b7a5a4;fill-rule:nonzero;"/><path d="M139.264,108.853l9.799,7.542l-22.863,-2.187l13.064,-5.355Z" style="fill:#8b8b98;fill-rule:nonzero;"/><path d="M149.063,116.395l4.517,20.218l-27.38,-22.405l22.863,2.187Z" style="fill:#8f8f9d;fill-rule:nonzero;"/><path d="M149.063,116.395l10.783,9.195l-6.266,11.023l-4.517,-20.218Z" style="fill:#a7a5b1;fill-rule:nonzero;"/><path d="M159.846,125.59l17.181,-20.264l2.846,2.792l-26.293,28.495l6.266,-11.023Z" style="fill:#afa7aa;fill-rule:nonzero;"/><path d="M177.027,105.326l7.464,-22.949l-4.035,-0.452l-3.429,23.401Z" style="fill:#c5bfc2;fill-rule:nonzero;"/><path d="M180.456,81.925l-0.308,-18.986l4.343,19.438l-4.035,-0.452Z" style="fill:#d5ceda;fill-rule:nonzero;"/><path d="M180.148,62.939l8.089,18.601l-3.746,0.837l-4.343,-19.438Z" style="fill:#9aa2bb;fill-rule:nonzero;"/><path d="M184.491,82.377l-4.618,25.741l-2.846,-2.792l7.464,-22.949Z" style="fill:#979ba5;fill-rule:nonzero;"/><path d="M179.873,108.118l9.876,-2.207l-1.512,-24.371l-3.746,0.837l-4.618,25.741Z" style="fill:#7c8499;fill-rule:nonzero;"/><path d="M179.873,108.118l-16.497,37.124l17.845,-8.167l8.528,-31.164l-9.876,2.207Z" style="fill:#8c8f9e;fill-rule:nonzero;"/><path d="M163.376,145.242l21.898,-22.978l-4.053,14.811l-17.845,8.167Z" style="fill:url(#_Linear5);"/><path d="M182.189,133.538l6.077,-2.9l-0.126,14.48l-24.764,0.124l17.845,-8.167l0.968,-3.537Z" style="fill:url(#_Linear6);"/><path d="M163.376,145.242l-1.659,5.78l-0.465,2.317l4.479,2.441l-2.355,-10.538Z" style="fill:#ecd0c0;fill-rule:nonzero;"/><path d="M165.731,155.78l1.638,-0.366l0.542,6.272l20.229,-16.568l-24.764,0.124l2.355,10.538Z" style="fill:#f4eae8;fill-rule:nonzero;"/><path d="M167.911,161.686l18.773,-4.194l1.456,-12.374l-20.229,16.568Z" style="fill:#bfb9bd;fill-rule:nonzero;"/><path d="M186.684,157.492l-18.736,33.527l1.249,-15.687l-1.286,-13.646l18.773,-4.194Z" style="fill:#e4dfe0;fill-rule:nonzero;"/><path d="M169.197,175.332l-3.061,-0.136l1.812,15.823l1.249,-15.687Z" style="fill:#eee4e4;fill-rule:nonzero;"/><path d="M169.197,175.332l-36.958,-30.427l7.462,15.053l26.435,15.238l3.061,0.136Z" style="fill:#93949e;fill-rule:nonzero;"/><path d="M132.239,144.905l-1.43,-6.401l30.443,14.835l7.945,21.993l-36.958,-30.427Z" style="fill:#9899a7;fill-rule:nonzero;"/><path d="M161.252,153.339l4.479,2.441l1.638,-0.366l0.542,6.272l1.286,13.646l-7.945,-21.993Z" style="fill:#9592a2;fill-rule:nonzero;"/><path d="M132.239,144.905l-18.86,0.69l17.43,-7.091l1.43,6.401Z" style="fill:#8f93a2;fill-rule:nonzero;"/><path d="M113.379,145.595l26.322,14.363l-7.462,-15.053l-18.86,0.69Z" style="fill:#838596;fill-rule:nonzero;"/><path d="M113.379,145.595l-2.583,1.641l14.631,18.533l2.757,-1.6l-14.805,-18.574Z" style="fill:#f8e1d6;fill-rule:nonzero;"/><path d="M125.427,165.769l40.881,10.945l-0.172,-1.518l-37.952,-11.027l-2.757,1.6Z" style="fill:#ac9895;fill-rule:nonzero;"/><path d="M128.184,164.169l-14.805,-18.574l26.322,14.363l-11.517,4.211Z" style="fill:#9496a7;fill-rule:nonzero;"/><path d="M128.184,164.169l11.517,-4.211l26.435,15.238l-37.952,-11.027Z" style="fill:#9896a4;fill-rule:nonzero;"/><path d="M186.684,157.492l25.204,-6.779l-23.748,-5.595l-1.456,12.374Z" style="fill:#e0d8d7;fill-rule:nonzero;"/><path d="M167.948,191.019l61.953,-23.513l-3.117,-8.81l-40.1,-1.204l-18.736,33.527Z" style="fill:#fcfafa;fill-rule:nonzero;"/><path d="M186.684,157.492l40.1,1.204l-14.896,-7.983l-25.204,6.779Z" style="fill:#fcfbfa;fill-rule:nonzero;"/><path d="M212.577,151.082l-24.311,-20.444l-0.126,14.48l24.437,5.964Z" style="fill:#cdccd9;fill-rule:nonzero;"/><path d="M239.894,151.34l-13.11,7.356l7.654,1.24l5.456,-8.596Z" style="fill:#c4c7d6;fill-rule:nonzero;"/><path d="M234.438,159.936l-4.537,7.57l-3.117,-8.81l7.654,1.24Z" style="fill:#b7b3bf;fill-rule:nonzero;"/><path d="M229.901,167.506l16.112,-6.386l-11.575,-1.184l-4.537,7.57Z" style="fill:#8b8a9f;fill-rule:nonzero;"/><path d="M246.013,161.12l-6.119,-9.78l-5.456,8.596l11.575,1.184Z" style="fill:#a7b1c8;fill-rule:nonzero;"/><path d="M246.013,161.12l4.68,-3.996l3.234,5.67l-7.914,-1.674Z" style="fill:#67697f;fill-rule:nonzero;"/><path d="M253.927,162.794l-2.906,7.534l-5.008,-9.208l7.914,1.674Z" style="fill:#65697e;fill-rule:nonzero;"/><path d="M251.021,170.328l-5.008,-9.208l-2.645,9.442l7.653,-0.234Z" style="fill:#626c80;fill-rule:nonzero;"/><path d="M251.021,170.328l-10.869,9.313l3.216,-9.079l7.653,-0.234Z" style="fill:#656b80;fill-rule:nonzero;"/><path d="M240.152,179.641l-10.251,-12.135l16.112,-6.386l-2.645,9.442l-3.216,9.079Z" style="fill:#62697c;fill-rule:nonzero;"/><path d="M229.901,167.506l-2.767,8.159l13.018,3.976l-10.251,-12.135Z" style="fill:#5b6175;fill-rule:nonzero;"/><path d="M227.134,175.665l-59.186,15.354l61.953,-23.513l-2.767,8.159Z" style="fill:#e9e2e1;fill-rule:nonzero;"/><path d="M227.134,175.665l-17.714,23.79l-41.472,-8.436l59.186,-15.354Z" style="fill:#686974;fill-rule:nonzero;"/><path d="M209.42,199.455l30.732,-19.814l-13.018,-3.976l-17.714,23.79Z" style="fill:#454c5b;fill-rule:nonzero;"/><path d="M155.333,257.187l-10.246,61.968l-19.823,1.751l30.069,-63.719Z" style="fill:#808493;fill-rule:nonzero;"/><path d="M209.42,199.455l0.712,53.441l-6.915,5.755l6.203,-59.196Z" style="fill:#eae6e6;fill-rule:nonzero;"/><path d="M210.132,252.896l15.098,-12.021l-11.763,-44.029l-4.047,2.609l0.712,53.441Z" style="fill:#8da8c0;fill-rule:nonzero;"/><path d="M225.23,240.875l-8.697,41.409l-6.401,-29.388l15.098,-12.021Z" style="fill:#adbdd5;fill-rule:nonzero;"/><path d="M194.688,352.976l-43.572,-50.464l2.492,-13.676l41.08,64.14Z" style="fill:#7c8499;fill-rule:nonzero;"/><path d="M138.605,378.565l-41.154,-24.527l21.796,-23.029l19.358,47.556Z" style="fill:#9d9ba3;fill-rule:nonzero;"/><path d="M156.011,241.022l-6.68,-19.617l3.531,-19.23l3.149,38.847Z" style="fill:#e4ddda;fill-rule:nonzero;"/><path d="M152.862,202.175l15.086,-11.156l-11.937,50.003l-3.149,-38.847Z" style="fill:#fffefb;fill-rule:nonzero;"/><path d="M155.63,173.855l-2.768,28.32l15.086,-11.156l-12.318,-17.164Z" style="fill:#fbfdfa;fill-rule:nonzero;"/><path d="M155.63,173.855l10.678,2.859l1.64,14.305l-12.318,-17.164Z" style="fill:#fff9f1;fill-rule:nonzero;"/><path d="M210.629,0l22.538,34.662l-6.542,0.806l-15.996,-35.468Z" style="fill:#ebe0e0;fill-rule:nonzero;"/><path d="M233.167,34.662l2.17,1.645l8.048,27.215l-1.573,4.695l-8.645,-33.555Z" style="fill:#c4dcf2;fill-rule:nonzero;"/><path d="M233.167,34.662l8.645,33.555l-15.187,-32.749l6.542,-0.806Z" style="fill:#e9dddc;fill-rule:nonzero;"/><path d="M241.812,68.217l-7.969,10.55l-7.218,-43.299l15.187,32.749Z" style="fill:#ebe0e0;fill-rule:nonzero;"/><path d="M228.224,67.565l-3.251,-6.486l5.902,18.351l2.968,-0.663l-5.619,-11.202Z" style="fill:#99a3ba;fill-rule:nonzero;"/><path d="M230.875,79.43l-3.267,14.595l-1.651,8.141l6.22,1.068l1.666,-24.467l-2.968,0.663Z" style="fill:#7b97a9;fill-rule:nonzero;"/><path d="M224.154,88.963l-7.549,-16.179l-3.52,1.851l7.593,22.973l6.93,-3.583l-3.454,-5.062Z" style="fill:#b2c2d8;fill-rule:nonzero;"/><path d="M213.085,74.635l-10.051,-19.309l2.523,-1.547l11.048,19.005l-3.52,1.851Z" style="fill:#afbfd8; fill-rule:nonzero;"/><path d="M205.557,53.779l-8.611,-11.025l6.088,12.572l2.523,-1.547Z" style="fill:#acb6c8;fill-rule:nonzero;"/><path d="M196.946,42.754l3.764,13.911l2.324,-1.339l-6.088,-12.572Z" style="fill:#fffbf7;fill-rule:nonzero;"/><path d="M200.71,56.665l8.287,39.291l-5.963,-40.63l-2.324,1.339Z" style="fill:#fffbf5;fill-rule:nonzero;"/><path d="M203.034,55.326l11.452,46.124l-5.489,-5.494l-5.963,-40.63Z" style="fill:#fffcfc;fill-rule:nonzero;"/><path d="M203.034,55.326l10.051,19.309l1.401,26.815l-11.452,-46.124Z" style="fill:#fffbf8;fill-rule:nonzero;"/><path d="M213.36,79.903l4.115,18.42l-2.989,3.127l-1.126,-21.547Z" style="fill:#aeb4cb;fill-rule:nonzero;"/><path d="M217.475,98.323l3.812,2.755l-1.103,2.214l-5.698,-1.842l2.989,-3.127Z" style="fill:#a5bad1;fill-rule:nonzero;"/><path d="M214.486,101.45l-11.584,20.782l17.282,-18.94l-5.698,-1.842Z" style="fill:url(#_Linear7);"/><path d="M202.902,122.232l6.095,-26.276l5.489,5.494l-11.584,20.782Z" style="fill:#fffffc;fill-rule:nonzero;"/><path d="M217.475,98.323l3.203,-0.715l-7.593,-22.973l0.275,5.268l4.115,18.42Z" style="fill:#fdf7f8;fill-rule:nonzero;"/><path d="M221.287,101.078l6.321,-7.053l-6.93,3.583l-3.203,0.715l3.812,2.755Z" style="fill:#a2b8cf;fill-rule:nonzero;"/><path d="M227.608,94.025l-1.651,8.141l-28.075,31.35l5.02,-11.284l17.282,-18.94l1.103,-2.214l6.321,-7.053Z" style="fill:#fffef5;fill-rule:nonzero;"/><path d="M233.425,84.905l10.06,-3.211l-10.43,8.64l0.37,-5.429Z" style="fill:#f9f7fb;fill-rule:nonzero;"/><path d="M243.485,81.694l1.664,6.595l3.379,-40.628l-5.043,34.033Z" style="fill:#b2c0d8;fill-rule:nonzero;"/><path d="M243.485,81.694l-1.673,-13.477l1.468,-5.164l2.84,-20.303l6.342,-22.234l-3.934,27.145l-5.043,34.033Z" style="fill:#fefaf9;fill-rule:nonzero;"/><path d="M252.462,20.516l0.843,23.579l-4.777,3.566l3.934,-27.145Z" style="fill:#adbdd5;fill-rule:nonzero;"/><path d="M253.305,44.095l-3.064,22.238l-0.463,19.2l-1.25,-37.872l4.777,-3.566Z" style="fill:#adbdd5;fill-rule:nonzero;"/><path d="M249.778,85.533l-4.629,2.756l3.379,-40.628l1.25,37.872Z" style="fill:#6f91ad;fill-rule:nonzero;"/><path d="M232.177,103.234l11.308,-21.54l-10.43,8.64l-0.878,12.9Z" style="fill:#6f91ad;fill-rule:nonzero;"/><path d="M245.149,88.289l-12.972,14.945l11.308,-21.54l0.57,6.839l1.094,-0.244Z" style="fill:#9dadc5;fill-rule:nonzero;"/><path d="M229.843,76.22l-2.376,10.692l-3.313,2.051l3.454,5.062l3.267,-14.595l-1.032,-3.21Z" style="fill:#fffcfd;fill-rule:nonzero;"/><path d="M208.997,95.956l-20.022,35.279l8.907,2.281l5.02,-11.284l6.095,-26.276Z" style="fill:#fffffb;fill-rule:nonzero;"/><path d="M188.975,131.235l27.026,13.314l23.893,6.791l-20.271,-11.862l-6.504,-2.153l-5.507,-1.351l-9.73,-2.458l-8.907,-2.281Z" style="fill:#bbc3d0;fill-rule:nonzero;"/><path d="M207.612,135.974l10.339,-13.643l14.226,-19.097l-6.22,-1.068l-17.505,19.547l-0.84,14.261Z" style="fill:#6f91ad;fill-rule:nonzero;"/><path d="M208.452,121.713l-10.57,11.803l9.73,2.458l0.84,-14.261Z" style="fill:url(#_Linear8);"/><path d="M217.951,122.331l-4.832,14.994l-5.507,-1.351l10.339,-13.643Z" style="fill:#f3e9ec;fill-rule:nonzero;"/><path d="M217.316,138.6l0.885,-5.484l7.398,-2.473l-5.976,8.835l-2.307,-0.878Z" style="fill:#acc5df;fill-rule:nonzero;"/><path d="M225.599,130.643l-1.356,11.538l-4.62,-2.703l5.976,-8.835Z" style="fill:#9ab7d2;fill-rule:nonzero;"/><path d="M239.894,151.34l10.799,5.784l-0.419,-1.874l-10.38,-3.91Z" style="fill:#aec2d8;fill-rule:nonzero;"/><path d="M250.274,155.25l3.653,7.544l-3.234,-5.67l-0.419,-1.874Z" style="fill:#b0d7e3;fill-rule:nonzero;"/><path d="M110.536,324.309l55.667,-111.029l-1.975,26.947l-53.692,84.082Z" style="fill:#fffbf8;fill-rule:nonzero;"/><path d="M90.121,321.524l27.033,-26.692l-14.244,-14.56l-12.789,41.252Z" style="fill:#9d9ba3;fill-rule:nonzero;"/><path d="M163.376,145.242l16.497,-37.124l-26.293,28.495l9.796,8.629Z" style="fill:#918d96;fill-rule:nonzero;"/><path d="M233.425,84.905l0.418,-6.138l7.969,-10.55l1.673,13.477l-10.06,3.211Z" style="fill:#e0d6da;fill-rule:nonzero;"/><path d="M188.266,130.638l24.311,20.444l3.424,-6.533l-27.735,-13.911Z" style="fill:#d8d2e1;fill-rule:nonzero;"/><path d="M226.784,158.696l-14.207,-7.614l3.424,-6.533l10.783,14.147Z" style="fill:#e0dce5;fill-rule:nonzero;"/><path d="M239.894,151.34l-13.11,7.356l-10.783,-14.147l23.893,6.791Z" style="fill:#e3dde8;fill-rule:nonzero;"/><path d="M239.894,151.34l6.119,9.78l4.68,-3.996l-10.799,-5.784Z" style="fill:#abbad2;fill-rule:nonzero;"/><path d="M244.055,88.533l1.094,-0.244l-1.664,-6.595l0.57,6.839Z" style="fill:#b2c0d8;fill-rule:nonzero;"/><path d="M106.755,293.956l21.17,-11.082l-2.177,-9.742l-18.993,20.824Z" style="fill:#fffffc;fill-rule:nonzero;"/><path d="M104.585,335.356l11.296,32.172l-27.376,-4.239l16.08,-27.933Z" style="fill:#555c6f;fill-rule:nonzero;"/><path d="M162.176,396.148l-1.381,-3.502l-18.818,-5.385l8.296,11.546l11.903,-2.659Z" style="fill:#454c5b;fill-rule:nonzero;"/><path d="M178.532,316.315l-2.436,40.802l11.843,-8.812l-9.407,-31.99Z" style="fill:#fdfcfa;fill-rule:nonzero;"/><path d="M64.433,349.946l33.309,28.62l-20.982,-48.459l-12.327,19.839Z" style="fill:#808493;fill-rule:nonzero;"/><path d="M141.128,383.108l30.451,-8.351l-47.286,3.197l16.835,5.154Z" style="fill:#555c6f;fill-rule:nonzero;"/><path d="M227.444,304.026l5.919,42.785l-10.712,-32.536l4.793,-10.249Z" style="fill:#7c8499;fill-rule:nonzero;"/><path d="M155.315,272.78l-37.824,-15.427l32.389,-15.655l5.435,31.082Z" style="fill:#fffffc;fill-rule:nonzero;"/><path d="M145.008,394.928l20.28,-36.932l32.699,-45.34l-52.979,82.272Z" style="fill:#fffffc;fill-rule:nonzero;"/><path d="M131.214,269.636l25.982,85.276l-14.916,-37.973l-11.066,-47.303Z" style="fill:#fffffc;fill-rule:nonzero;"/><path d="M166.308,176.714l2.889,-1.382l-3.061,-0.136l0.172,1.518Z" style="fill:#977e7a;fill-rule:nonzero;"/><path d="M210.591,272.448l11.64,42.554l1.807,-13.184l-13.447,-29.37Z" style="fill:#c4dcf2;fill-rule:nonzero;"/><path d="M235.401,314.533l7.434,33.269l-3.22,-34.211l-4.214,0.942Z" style="fill:#ebe0e0;fill-rule:nonzero;"/><path d="M167.948,191.014l35.269,67.632l6.203,-59.196l-41.472,-8.436Z" style="fill:#9d9ba3;fill-rule:nonzero;"/><path d="M170.325,265.758l29.25,-13.934l-37.893,47.548l8.643,-33.614Z" style="fill:#fbfdfa;fill-rule:nonzero;"/><path d="M183.332,265.81l-35.456,4.773l28.78,-16.038l6.676,11.265Z" style="fill:#feefe9;fill-rule:nonzero;"/><path d="M215.76,249.169l-54.078,-0.675l41.29,41.926l12.788,-41.251Z" style="fill:#d8d1d7;fill-rule:nonzero;"/><path d="M169.239,269.209c0.864,-2.773 1.728,-5.544 2.59,-8.316l-8.356,-6.948l5.766,15.264Z" style="fill:#555c6f;fill-rule:nonzero;"/><path d="M167.773,191.07l-4.534,58.382l7.61,12.233l-3.076,-70.615Z" style="fill:#808493;fill-rule:nonzero;"/><path d="M233.687,359.47l5.178,3.83l-8.226,7.24l3.048,-11.07Z" style="fill:#8c8e9c;"/><path d="M228.852,343.269l6.2,7.861l0.982,-7.08l-7.182,-0.781Z" style="fill:#686974;"/><path d="M236.034,344.05l-0.988,7.08l9.682,-8.868l-8.694,1.788Z" style="fill:#abbad2;"/><path d="M235.403,334.564l0.631,9.486l-7.182,-0.781l6.551,-8.705Z" style="fill:#484e5e;"/><path d="M239.461,338.572l-3.427,5.478l-0.631,-9.486l4.058,4.008Z" style="fill:#8b8a9f;"/><path d="M236.034,344.05l3.427,-5.478l5.267,3.69l-8.694,1.788Z" style="fill:#abbad2;"/><path d="M240.341,334.251l-0.88,4.321l5.267,3.69l-4.387,-8.011Z" style="fill:#c4c7d6;"/><path d="M235.403,334.564l4.058,4.008l0.88,-4.321l-4.938,0.313Z" style="fill:#8b8a9f;"/><path d="M233.687,359.47l1.359,-8.34l9.682,-8.868l-5.863,21.038l-5.178,-3.83Z" style="fill:#b7b3bf;"/><path d="M222.559,381.071l-4.904,-13.636l16.032,-7.965l-3.048,11.07l-8.08,10.531Z" style="fill:#586071;"/><path d="M238.865,363.3l-16.306,17.771l8.08,-10.531l8.226,-7.24Z" style="fill:#b7b3bf;"/><path d="M220.038,360.336l13.649,-0.866l1.359,-8.34l-15.008,9.206Z" style="fill:#686974;"/><path d="M251.798,365.432l2.849,-6.933l13.677,0l-16.526,6.933Z" style="fill:#8b8a9f;"/><path d="M248.883,269.312l-59.201,29.315l0,32.579l59.201,-61.894Z" style="fill:#c4c7d6;"/><path d="M137.253,314.755l71.47,-41.406l-4.084,16.37l-67.386,25.036Z" style="fill:#a7b1c8;"/><path d="M204.639,289.719l9.498,3.708l-88.873,56.974l79.375,-60.682Z" style="fill:#fdede2;"/><path d="M248.883,269.312l1.173,8.683l-33.69,28.099l-20.416,17.028l44.78,-45.522l3.193,-3.246l4.96,-5.042Z" style="fill:#b7b3bf;"/><path d="M199.939,351.514l-5.129,-27.835l41.723,-34.369l13.523,-11.315l-50.117,73.519Z" style="fill:#62697c;"/><path d="M275.662,278.593l4.822,63.433l-3.846,-8.272l-8.674,-58.304l7.698,3.143Z" style="fill:#dad6d9;"/><path d="M268.324,358.499l4.914,4.15l-8.689,6.704l3.775,-10.854Z" style="fill:#8c8e9c;"/><path d="M264.575,342.026l5.665,8.237l1.45,-7.003l-7.115,-1.234Z" style="fill:#686974;"/><path d="M260.372,290.641l11.318,43.113l-3.726,-58.304l-7.592,15.191Z" style="fill:#707386;"/><path d="M267.161,315.511l2.18,20.999l2.349,-2.756l-4.529,-18.243Z" style="fill:#484e5e;"/><path d="M271.69,343.26l-1.456,7.003l10.25,-8.237l-8.794,1.234Z" style="fill:#abbad2;"/><path d="M271.69,333.754l0,9.506l-7.115,-1.234l7.115,-8.272Z" style="fill:#484e5e;"/><path d="M275.473,337.935l-3.783,5.325l0,-9.506l3.783,4.181Z" style="fill:#8b8a9f;"/><path d="M267.964,275.45l3.827,58.304l4.847,0l-8.674,-58.304Z" style="fill:#dad6d9;"/><path d="M271.69,343.26l3.783,-5.249l5.011,4.015l-8.794,1.234Z" style="fill:#abbad2;"/><path d="M276.638,333.754l-1.165,4.257l5.011,4.015l-3.846,-8.272Z" style="fill:#c4c7d6;"/><path d="M271.69,333.754l3.783,4.257l1.165,-4.257l-4.948,0Z" style="fill:#8b8a9f;"/><path d="M268.324,358.499l1.91,-8.236l10.25,-8.237l-7.246,20.623l-4.914,-4.15Z" style="fill:#b7b3bf;"/><path d="M214.137,293.059l-88.873,57.169l21.677,19.125l67.196,-76.294Z" style="fill:#8b8a9f;"/><path d="M146.371,369.353l46.73,-28.769l21.036,-47.525l-67.766,76.294Z" style="fill:#5b6175;"/><path d="M263.947,265.27l-15.064,4.042l7.532,2.695l7.532,-6.737Z" style="fill:#c4c7d6;fill-rule:nonzero;"/><path d="M256.415,272.007l-6.359,5.988l-1.173,-8.683l7.532,2.695Z" style="fill:#b7b3bf;fill-rule:nonzero;"/><path d="M250.056,277.995l17.908,-2.545l-11.549,-3.443l-6.359,5.988Z" style="fill:#8b8a9f;fill-rule:nonzero;"/><path d="M267.964,275.45l-4.017,-10.18l-7.532,6.737l11.549,3.443Z" style="fill:#a7b1c8;fill-rule:nonzero;"/><path d="M267.964,275.45l5.689,-2.695l2.009,5.838l-7.698,-3.143Z" style="fill:#b7b3bf;fill-rule:nonzero;"/><path d="M260.372,290.612l-10.316,-12.617l17.908,-2.545l-4.017,8.083l-3.575,7.079Z" style="fill:#62697c;fill-rule:nonzero;"/><path d="M250.056,277.995l2.152,12.617l8.164,0l-10.316,-12.617Z" style="fill:#5b6175;fill-rule:nonzero;"/><path d="M263.947,265.27l9.706,7.485l0,-1.796l-9.706,-5.689Z" style="fill:#aec2d8;fill-rule:nonzero;"/><path d="M273.653,270.959l2.009,7.634l-2.009,-5.838l0,-1.796Z" style="fill:#b0d7e3;fill-rule:nonzero;"/><path d="M217.605,337.04l-17.666,14.474l50.117,-73.519l2.312,12.617l-34.763,46.428Z" style="fill:#586071;"/><path d="M263.947,265.27l4.017,10.18l5.689,-2.695l-9.706,-7.485Z" style="fill:#abbad2;fill-rule:nonzero;"/><path d="M208.723,273.349l-4.084,16.37l6.854,-5.578l-2.77,-10.792Z" style="fill:#c4c7d6;fill-rule:nonzero;"/><path d="M211.493,284.141l2.644,9.286l-9.498,-3.708l6.854,-5.578Z" style="fill:#8b8a9f;fill-rule:nonzero;"/><path d="M214.137,293.427l7.161,-17.829l-9.805,8.543l2.644,9.286Z" style="fill:#8b8a9f;fill-rule:nonzero;"/><path d="M221.298,275.598l-12.575,-2.249l2.77,10.792l9.805,-8.543Z" style="fill:#a7b1c8;fill-rule:nonzero;"/><path d="M221.298,275.598l0.352,-6.761l7.051,1.56l-7.403,5.201Z" style="fill:#c4c7d6;fill-rule:nonzero;"/><path d="M228.701,270.397l3.862,7.932l-11.265,-2.731l7.403,-5.201Z" style="fill:#a7b1c8;fill-rule:nonzero;"/><path d="M208.723,273.349l12.927,-4.512l-1.833,-1.044l-11.094,5.556Z" style="fill:#aec2d8;fill-rule:nonzero;"/><path d="M219.817,267.793l8.884,2.604l-7.051,-1.56l-1.833,-1.044Z" style="fill:#b0d7e3;fill-rule:nonzero;"/><path d="M208.723,273.349l12.575,2.249l0.352,-6.761l-12.927,4.512Z" style="fill:#abbad2;fill-rule:nonzero;"/><path d="M221.298,275.598l19.043,58.653l-4.938,0.313l-14.105,-58.966Z" style="fill:#a6b3c6;"/><path d="M214.137,293.427l21.266,41.137l-14.105,-58.966l-7.161,17.829Z" style="fill:#fcf6f4;fill-rule:nonzero;"/><path d="M255.787,379.35l-3.989,-13.918l16.526,-6.933l-3.775,10.854l-8.762,9.997Z" style="fill:#586071;"/><path d="M273.238,362.649l-17.451,16.701l8.762,-9.997l8.689,-6.704Z" style="fill:#b7b3bf;"/><path d="M254.647,358.499l13.677,0l1.91,-8.236l-15.587,8.236Z" style="fill:#686974;"/><path d="M221.298,275.598l11.265,2.731l12.165,63.933l-4.387,-8.011l-19.043,-58.653Z" style="fill:#c4c7d6;"/>
    </g>
</svg>
